<svg width="376" height="424" viewBox="0 0 376 424" fill="none" xmlns="http://www.w3.org/2000/svg">
<path d="M3 383V3H174.762C201.803 3 331 29.8533 331 197.56C331 313.079 252.38 383 174.762 383H3Z" fill="#8A8EFC" stroke="black" stroke-width="5"/>
<path d="M45 421V49H216.762C243.803 49 373 75.288 373 239.464C373 352.552 294.38 421 216.762 421H45Z" fill="#5CFFCF" fill-opacity="0.73" stroke="black" stroke-width="5"/>
<path d="M3 383V3H174.762C201.803 3 331 29.8533 331 197.56C331 313.079 252.38 383 174.762 383H3Z" stroke="black" stroke-width="4"/>
<path d="M82 213V82H133.843C142.005 82 181 91.2573 181 149.072C181 188.896 157.27 213 133.843 213H82Z" fill="#FEF980" stroke="black" stroke-width="4"/>
<path d="M148 144.152L82 85V209L148 144.152Z" fill="white" stroke="black" stroke-width="4"/>
</svg>
