<svg width="128" height="128" viewBox="0 0 128 128" fill="none" xmlns="http://www.w3.org/2000/svg">
<path d="M106.691 2.38672H61.531C61.531 13.6447 70.645 22.7567 81.898 22.7567H90.207V30.7967C90.207 42.0547 99.32 51.1677 110.578 51.1677V6.27272C110.577 5.24224 110.167 4.25428 109.438 3.52572C108.71 2.79715 107.721 2.38751 106.691 2.38672V2.38672Z" fill="#2684FF"/>
<path d="M84.313 24.9023H39.153C39.153 36.1603 48.262 45.2703 59.52 45.2703H67.828V53.3123C67.828 64.5703 76.941 73.6843 88.199 73.6843V28.7893C88.1982 27.7589 87.7885 26.7708 87.06 26.042C86.3314 25.3133 85.3434 24.9034 84.313 24.9023V24.9023Z" fill="url(#paint0_linear_301_10557)"/>
<path d="M61.934 47.4141H16.77C16.77 58.6721 25.883 67.7851 37.14 67.7851H45.45V75.8281C45.45 87.0821 54.562 96.1951 65.82 96.1951V51.3011C65.8192 50.2706 65.4096 49.2825 64.681 48.5538C63.9525 47.825 62.9645 47.4151 61.934 47.4141V47.4141Z" fill="url(#paint1_linear_301_10557)"/>
<path d="M46 101.242H49.434V118.222C49.434 122.703 47.391 125.828 42.648 125.828C40.868 125.828 39.473 125.531 38.516 125.195V121.941C39.563 122.363 40.824 122.574 42.086 122.574C45 122.574 46 120.887 46 118.434V101.242ZM55.742 99.9297C57.09 99.9297 58.047 100.734 58.047 102.168C58.047 103.562 57.09 104.41 55.742 104.41C54.395 104.41 53.438 103.605 53.438 102.168C53.438 100.778 54.395 99.9297 55.742 99.9297ZM54.047 107.07H57.352V125.66H54.047V107.07ZM65.527 125.66H62.31V107.07H65.528V110.324C66.661 108.125 68.575 106.563 72.313 106.774V109.902C68.095 109.48 65.528 110.703 65.528 114.676L65.527 125.66ZM87.758 122.32C86.539 124.773 84.234 126.04 81.273 126.04C76.188 126.04 73.621 121.855 73.621 116.363C73.621 111.125 76.316 106.691 81.668 106.691C84.449 106.691 86.625 107.914 87.758 110.324V107.07H91.063V125.66H87.758V122.32ZM82.145 123.082C85.102 123.082 87.711 121.266 87.711 117.125V115.648C87.711 111.508 85.321 109.691 82.492 109.691C78.797 109.691 76.882 112.055 76.882 116.363C76.926 120.843 78.754 123.082 82.145 123.082V123.082Z" fill="#253858"/>
<defs>
<linearGradient id="paint0_linear_301_10557" x1="87.26" y1="24.953" x2="68.0449" y2="44.7661" gradientUnits="userSpaceOnUse">
<stop offset="0.176" stop-color="#0052CC"/>
<stop offset="1" stop-color="#2684FF"/>
</linearGradient>
<linearGradient id="paint1_linear_301_10557" x1="66.1805" y1="47.5879" x2="43.9635" y2="69.203" gradientUnits="userSpaceOnUse">
<stop offset="0.176" stop-color="#0052CC"/>
<stop offset="1" stop-color="#2684FF"/>
</linearGradient>
</defs>
</svg>
