<svg width="128" height="128" viewBox="0 0 128 128" fill="none" xmlns="http://www.w3.org/2000/svg">
<path d="M2.001 90.4585H6.109V74.2355L12.469 88.3784C13.219 90.0904 14.246 90.6954 16.261 90.6954C18.276 90.6954 19.264 90.0904 20.014 88.3784L26.374 74.2355V90.4585H30.482V74.2625C30.482 72.6825 29.85 71.9175 28.546 71.5235C25.425 70.5495 23.331 71.3925 22.383 73.4995L16.142 87.4575L10.099 73.4985C9.19 71.3925 7.057 70.5495 3.936 71.5225C2.632 71.9175 2 72.6815 2 74.2615V90.4585H2.001ZM33.899 77.2524H38.006V86.1905C37.968 86.6755 38.162 87.8154 40.412 87.8514C41.56 87.8694 49.274 87.8514 49.346 87.8514V77.2085H53.463C53.482 77.2085 53.459 91.7224 53.459 91.7824C53.481 95.3624 49.018 96.1394 46.96 96.1994H33.988V93.4354C34.01 93.4354 46.951 93.4384 46.983 93.4344C49.628 93.1554 49.315 91.8415 49.314 91.3995V90.3214H40.583C36.521 90.2844 33.933 88.5115 33.9 86.4715C33.898 86.2845 33.989 77.3424 33.899 77.2524V77.2524Z" fill="#00618A"/>
<path d="M56.63 90.4581H68.442C69.825 90.4581 71.169 90.1691 72.235 89.6691C74.012 88.8531 74.881 87.7471 74.881 86.2971V83.2951C74.881 82.1101 73.894 81.0031 71.958 80.2671C70.931 79.8711 69.666 79.6621 68.441 79.6621H63.463C61.804 79.6621 61.014 79.1621 60.817 78.0561C60.778 77.9241 60.778 77.8191 60.778 77.6871V75.8171C60.778 75.7121 60.778 75.6061 60.817 75.4751C61.014 74.6321 61.449 74.3951 62.911 74.2631L63.306 74.2371H75.039V71.4991H63.504C61.845 71.4991 60.976 71.6041 60.186 71.8411C57.737 72.6051 56.669 73.8161 56.669 75.9231V78.3191C56.669 80.1631 58.764 81.7431 62.279 82.1121C62.675 82.1371 63.069 82.1651 63.464 82.1651H67.731C67.889 82.1651 68.047 82.1651 68.166 82.1901C69.47 82.2951 70.022 82.5331 70.418 83.0061C70.5195 83.0998 70.6 83.2139 70.6543 83.3409C70.7086 83.4679 70.7354 83.605 70.733 83.7431V86.1401C70.733 86.4291 70.536 86.7981 70.141 87.1141C69.786 87.4301 69.193 87.6411 68.403 87.6941L67.968 87.7201H56.63V90.4581ZM100.511 85.6921C100.511 88.5091 102.605 90.0891 106.831 90.4061C107.226 90.4321 107.621 90.4581 108.016 90.4581H118.722V87.7201H107.938C105.528 87.7201 104.62 87.1141 104.62 85.6651V71.4971H100.512V85.6921H100.511ZM77.503 85.8341V76.0691C77.503 73.5891 79.245 72.0841 82.689 71.6091C83.056 71.5564 83.4263 71.53 83.797 71.5301H91.596C91.992 71.5301 92.348 71.5561 92.743 71.6091C96.187 72.0841 97.93 73.5881 97.93 76.0691V85.8341C97.93 87.8481 97.19 88.9241 95.485 89.6261L99.533 93.2791H94.762L91.488 90.3231L88.192 90.5321H83.797C82.9806 90.5268 82.1686 90.4115 81.383 90.1891C78.77 89.4771 77.503 88.1041 77.503 85.8341V85.8341ZM81.937 85.5971C81.937 85.7291 81.976 85.8621 82.016 86.0201C82.253 87.1551 83.323 87.7881 84.945 87.7881H88.677L85.249 84.6931H90.02L93.009 87.3931C93.561 87.0981 93.923 86.6501 94.05 86.0731C94.089 85.9411 94.089 85.8091 94.089 85.6771V76.3091C94.089 76.2041 94.089 76.0711 94.05 75.9391C93.812 74.8831 92.743 74.2771 91.16 74.2771H84.944C83.124 74.2771 81.936 75.0691 81.936 76.3091V85.5971H81.937Z" fill="#E48E00"/>
<path d="M122.336 66.9516C119.811 66.8826 117.882 67.1176 116.232 67.8126C115.763 68.0106 115.016 68.0156 114.94 68.6026C115.197 68.8736 115.237 69.2766 115.442 69.6086C115.836 70.2456 116.501 71.0996 117.094 71.5466C117.741 72.0356 118.409 72.5596 119.105 72.9836C120.34 73.7376 121.72 74.1676 122.911 74.9216C123.612 75.3676 124.308 75.9276 124.993 76.4306C125.332 76.6776 125.558 77.0646 125.999 77.2196V77.1486C125.768 76.8546 125.708 76.4506 125.496 76.1426L124.562 75.2086C123.649 73.9966 122.491 72.9336 121.258 72.0496C120.276 71.3446 118.078 70.3916 117.668 69.2486L117.596 69.1776C118.292 69.0986 119.108 68.8466 119.75 68.6746C120.83 68.3846 121.795 68.4596 122.91 68.1716L124.418 67.7396V67.4536C123.855 66.8756 123.452 66.1096 122.838 65.5866C121.231 64.2176 119.475 62.8496 117.668 61.7076C116.666 61.0756 115.427 60.6646 114.364 60.1286C114.008 59.9476 113.38 59.8546 113.143 59.5536C112.584 58.8426 112.281 57.9416 111.85 57.1126C110.93 55.3217 110.067 53.5014 109.265 51.6546C108.721 50.4096 108.365 49.1816 107.686 48.0646C104.425 42.7036 100.915 39.4676 95.478 36.2876C94.321 35.6106 92.928 35.3446 91.457 34.9956L89.087 34.8516C88.606 34.6506 88.104 34.0606 87.651 33.7746C85.849 32.6366 81.229 30.1616 79.895 33.4166C79.053 35.4706 81.155 37.4746 81.906 38.5156C82.433 39.2456 83.109 40.0636 83.486 40.8846C83.734 41.4246 83.776 41.9656 83.989 42.5366C84.51 43.9426 84.965 45.4736 85.64 46.7726C85.981 47.4306 86.358 48.1236 86.789 48.7116C87.053 49.0716 87.507 49.2316 87.578 49.7886C87.135 50.4086 87.109 51.3726 86.86 52.1576C85.738 55.6966 86.161 60.0956 87.794 62.7146C88.295 63.5196 89.475 65.2436 91.097 64.5816C92.516 64.0036 92.2 62.2126 92.606 60.6316C92.698 60.2746 92.641 60.0106 92.821 59.7706V59.8426L94.114 62.4276C95.071 63.9686 96.768 65.5776 98.207 66.6646C98.953 67.2276 99.541 68.2026 100.505 68.5316V68.4586H100.434C100.246 68.1676 99.955 68.0476 99.715 67.8126C99.153 67.2616 98.528 66.5776 98.064 65.9456C96.755 64.1696 95.599 62.2246 94.545 60.2006C94.042 59.2346 93.605 58.1686 93.181 57.1846C93.017 56.8056 93.019 56.2316 92.679 56.0366C92.213 56.7566 91.53 57.3396 91.17 58.1906C90.596 59.5506 90.522 61.2096 90.309 62.9296L90.165 63.0006C89.164 62.7596 88.813 61.7296 88.441 60.8466C87.501 58.6136 87.326 55.0166 88.154 52.4456C88.368 51.7796 89.335 49.6846 88.943 49.0696C88.756 48.4566 88.139 48.1026 87.795 47.6326C87.3437 47.0037 86.9586 46.3298 86.646 45.6216C85.876 43.8806 85.517 41.9256 84.708 40.1646C84.32 39.3226 83.666 38.4716 83.128 37.7236C82.533 36.8936 81.866 36.2836 81.404 35.2816C81.24 34.9256 81.017 34.3546 81.26 33.9886C81.337 33.7416 81.448 33.6386 81.692 33.5576C82.108 33.2366 83.268 33.6646 83.702 33.8446C84.854 34.3236 85.815 34.7786 86.791 35.4246C87.259 35.7356 87.732 36.3356 88.299 36.5016H88.945C89.956 36.7336 91.089 36.5726 92.033 36.8596C93.703 37.3676 95.199 38.1566 96.557 39.0146C100.696 41.6286 104.079 45.3486 106.395 49.7866C106.767 50.5016 106.929 51.1826 107.256 51.9406C107.918 53.4686 108.752 55.0416 109.41 56.5366C110.067 58.0276 110.708 59.5326 111.637 60.7736C112.125 61.4256 114.011 61.7756 114.868 62.1376C115.469 62.3916 116.453 62.6566 117.022 62.9986C118.109 63.6546 119.163 64.4356 120.182 65.1536C120.691 65.5156 122.258 66.3026 122.336 66.9516V66.9516ZM90.237 39.5926C89.8017 39.5855 89.3672 39.6339 88.944 39.7366V39.8076H89.016C89.267 40.3246 89.71 40.6566 90.021 41.1006L90.74 42.6086L90.811 42.5376C91.256 42.2246 91.459 41.7236 91.457 40.9576C91.278 40.7696 91.252 40.5346 91.098 40.3116C90.894 40.0116 90.496 39.8436 90.237 39.5926V39.5926Z" fill="#00618A"/>
</svg>
