<svg width="128" height="128" viewBox="0 0 128 128" fill="none" xmlns="http://www.w3.org/2000/svg">
<path fill-rule="evenodd" clip-rule="evenodd" d="M51.8339 23.0172C55.5899 23.0172 59.3459 23.0752 63.0969 22.9772C64.0919 22.9512 65.8769 23.7742 65.7969 21.7062C65.7359 20.0232 64.1749 20.6322 63.2289 20.6172C58.9919 20.5502 54.7409 20.3892 50.5209 20.6542C47.5179 20.8412 46.6329 19.7012 47.0099 16.9472C47.1399 15.9972 47.0149 15.0132 47.0349 14.0452C47.1669 7.59918 48.7249 5.40518 54.9769 3.81518C61.8649 2.06518 68.9139 2.12318 75.7829 3.63118C81.9579 4.98718 84.5229 9.79118 84.2109 14.2352C83.8309 19.6582 84.1249 25.1282 84.1199 30.5782C84.1109 37.4312 80.5699 41.0682 73.6609 41.1632C67.9709 41.2412 62.2739 41.3032 56.5869 41.1452C49.8089 40.9552 44.8369 46.5852 44.8029 52.9652C44.8029 53.4492 44.8859 53.9492 44.7899 54.4162C44.3019 56.7592 46.2519 60.5462 43.7679 61.2422C39.9879 62.3042 35.5619 62.3042 32.2279 58.9312C31.0979 57.7912 30.1459 56.5142 29.6439 55.0382C26.9649 47.1732 26.5419 39.2082 29.0639 31.2202C30.6359 26.2342 34.9119 23.1332 40.2089 23.0442C44.0829 22.9792 47.9579 23.0312 51.8319 23.0312L51.8339 23.0172V23.0172ZM58.7359 11.8972C58.5739 9.99418 57.5509 8.60518 55.4399 8.54718C53.1309 8.48718 51.9379 9.88318 51.9349 12.1552C51.9329 14.2612 53.0799 15.6102 55.1759 15.6712C57.4789 15.7382 58.5939 14.3112 58.7359 11.8972V11.8972Z" fill="#386F9F"/>
<path fill-rule="evenodd" clip-rule="evenodd" d="M80.824 61.5724C76.584 61.5724 72.342 61.5354 68.102 61.6024C67.147 61.6144 65.545 61.0104 65.495 62.6434C65.439 64.4954 67.158 64.0134 68.25 64.0244C72.49 64.0774 76.734 64.1224 80.973 64.0044C83.151 63.9444 84.04 64.3614 84.203 66.9294C84.94 78.5544 79.895 79.5594 70.59 81.6744C65.252 82.8874 59.529 82.2444 54.265 79.8864C49.912 77.9394 47.241 75.1334 47.578 69.8794C47.912 64.6934 47.968 59.4404 47.569 54.2594C47.089 48.0064 50.979 43.4074 58.544 43.4054C63.634 43.4044 68.758 43.0164 73.804 43.4804C81.019 44.1424 86.676 37.8884 86.924 30.6164C86.934 30.3754 86.872 30.1164 86.934 29.8924C87.57 27.6574 85.308 24.3354 88.334 23.2064C92.907 21.5014 98.064 23.2934 100.4 26.7634C103.345 31.1324 103.743 36.2734 104.219 41.2934C104.734 46.7044 103.216 51.7984 100.943 56.6794C99.399 59.9894 96.803 61.5894 93.186 61.5944C89.066 61.5974 84.947 61.5944 80.826 61.5944C80.824 61.5864 80.824 61.5794 80.824 61.5724V61.5724ZM79.72 72.3724C79.267 70.3064 78.335 68.8964 75.935 68.8374C73.439 68.7774 72.795 70.6444 72.808 72.3114C72.822 74.0834 73.316 76.2634 76.018 76.0594C78.264 75.8874 79.359 74.4964 79.72 72.3724V72.3724Z" fill="#FFCF46"/>
<path fill-rule="evenodd" clip-rule="evenodd" d="M14.1289 114.849C14.1289 117.431 14.2459 119.849 14.0739 122.246C13.9999 123.28 15.1399 125.226 12.9709 125.224C11.0589 125.224 10.5679 123.702 10.6289 121.863C10.7459 118.353 10.6629 114.836 10.6629 111.323V103.325C10.6629 98.5052 11.9559 96.8732 16.5659 95.8752C20.8519 94.9432 24.2199 96.3862 25.9519 100.138C27.6839 103.891 27.8179 107.758 26.0849 111.576C24.3769 115.338 21.2309 116.742 17.2009 115.627C16.2829 115.377 15.3559 115.16 14.1289 114.849V114.849ZM14.1289 105.401C14.1289 106.731 14.3089 108.087 14.0919 109.381C13.5899 112.372 15.4999 113.109 17.7519 113.641C19.9789 114.167 21.5059 113.22 22.3989 111.258C23.8999 107.968 24.1519 104.575 23.0119 101.096C21.9999 98.0042 19.6629 97.6422 16.9349 98.0262C14.2409 98.4092 13.8759 100.241 14.1109 102.506C14.2109 103.461 14.1289 104.436 14.1289 105.401V105.401ZM43.1159 114.689C41.2709 115.169 39.6689 115.681 38.0289 115.989C34.4389 116.66 31.7809 114.689 30.8459 111.095C29.6859 106.647 30.6679 102.216 30.6979 97.7782C30.7109 95.7552 32.5829 96.5442 33.8779 95.4602C33.8779 100.21 33.8959 104.31 33.8719 108.407C33.8589 110.465 34.3909 112.157 36.3369 113.242C38.4849 114.44 40.2469 113.299 42.1169 112.53C43.4569 111.979 43.2899 110.854 43.2919 109.784C43.3019 105.912 43.2909 102.044 43.3039 98.1722C43.3059 97.2172 43.2069 96.0502 44.6169 96.0972C45.8739 96.1382 46.4209 96.8852 46.3999 98.2552C46.3089 104.662 46.4899 111.078 46.2299 117.476C46.0329 122.314 42.6199 125.269 37.7099 125.486C36.9749 125.517 36.2049 125.585 35.9299 124.673C35.5109 123.269 36.6479 123.534 37.3949 123.295C42.7959 121.577 43.5019 120.551 43.1159 114.689V114.689ZM65.9399 98.0642C67.3689 97.3892 68.1899 96.7712 69.0929 96.6042C74.1599 95.6672 78.0429 96.0242 78.0329 102.849C78.0259 106.364 78.0349 109.88 78.0259 113.394C78.0239 114.378 78.0869 115.336 76.6199 115.421C75.0729 115.513 74.7329 114.628 74.7399 113.415C74.7579 110.028 74.8499 106.641 74.8469 103.255C74.8449 100.625 74.3079 98.2972 70.9629 98.3052C68.0289 98.3102 65.9509 100.5 65.9359 103.522C65.9191 106.794 65.9201 110.065 65.9389 113.336C65.9419 114.498 65.9669 115.517 64.2869 115.421C62.7739 115.331 62.9599 114.311 62.9599 113.372C62.9499 104.772 62.9919 96.1632 62.9189 87.5572C62.9059 86.0492 63.5009 85.1132 64.8389 85.0492C66.7269 84.9622 65.8619 86.6132 65.8899 87.4412C66.0129 90.8122 65.9399 94.1912 65.9399 98.0642V98.0642ZM81.9299 105.775C81.7389 99.0602 84.9239 95.4752 90.6899 95.6832C93.5839 95.7892 95.7549 97.0732 97.1559 99.5732C99.6309 103.995 99.2959 108.419 96.6179 112.56C94.7779 115.404 91.9479 116.745 88.4979 116.013C85.0959 115.293 82.4319 112.23 81.9499 108.66C81.8219 107.715 81.9299 106.736 81.9299 105.775ZM95.2499 105.932C95.0979 104.76 95.1249 103.126 94.6369 101.668C93.9699 99.6682 92.7539 98.0582 90.2729 97.9482C87.7699 97.8402 86.5209 99.3032 85.6859 101.328C84.3749 104.507 84.4599 107.699 85.8799 110.821C86.7919 112.832 88.1999 114.304 90.6399 113.896C93.0429 113.495 94.4609 111.92 94.9519 109.583C95.1749 108.524 95.1389 107.415 95.2499 105.933V105.932ZM102.257 106.827C102.257 105.615 102.234 104.405 102.261 103.199C102.317 100.874 101.576 98.2982 104.711 97.1102C108.301 95.7542 111.859 94.7382 115.473 96.8372C116.825 97.6232 117.323 99.0512 117.337 100.567C117.374 104.798 117.318 109.031 117.375 113.262C117.395 114.738 117.007 115.476 115.348 115.436C113.53 115.393 113.913 114.153 113.925 113.163C113.968 109.783 114.203 106.406 114.139 103.031C114.055 98.7812 111.723 97.0482 107.75 98.0912C106.102 98.5252 105.072 99.3252 105.153 101.365C105.314 105.347 105.19 109.343 105.205 113.332C105.209 114.488 105.226 115.512 103.558 115.415C102.03 115.327 102.28 114.27 102.268 113.353C102.24 111.177 102.26 109 102.257 106.827V106.827ZM58.6889 97.4032C58.4389 97.6992 58.2289 98.1632 58.0089 98.1672C54.0449 98.2222 55.1449 101.181 55.0429 103.376C54.9459 105.421 55.0429 107.476 55.0139 109.527C54.9839 111.565 55.1609 113.459 57.6409 114C58.3519 114.154 58.6759 114.564 58.5279 115.274C58.3649 116.058 57.7399 116.027 57.1209 116.019C54.2709 115.969 52.1579 113.954 52.0739 111.004C51.9879 107.99 52.1049 104.969 52.0339 101.958C51.9969 100.528 52.7399 98.7032 50.4339 98.1362C50.1809 98.0752 50.0909 97.3582 49.9259 96.9492C53.0019 95.9842 51.7259 93.3312 52.1479 91.3182C52.3479 90.3652 53.2529 90.1042 54.1079 90.0232C54.9729 89.9412 54.9799 90.6412 55.0079 91.2262C55.1219 93.5462 53.9209 96.6512 58.1919 96.4822C58.3349 96.4772 58.5019 97.0442 58.6889 97.4022V97.4032Z" fill="#386F9F"/>
</svg>
